<svg xmlns="http://www.w3.org/2000/svg" width="953.00008" height="670.02548" viewBox="0 0 953.00008 670.02548" xmlns:xlink="http://www.w3.org/1999/xlink"><circle cx="648.71969" cy="264.17521" r="83.14973" fill="#ff6363" stroke-width="0"/><path d="m197.57705,626.25045c-5.16075,7.90253,1.65058,18.10176,10.89259,16.18639,19.2164-3.98251,57.21176-9.76694,72.64157,2.66714,21.06162,16.97245,95.7404,40.73388,194.18062,10.18347,98.44022-30.55041,142.56859-27.15592,142.56859-27.15592,0,0,54.1492-38.80299-10.26479-70.31885-64.41399-31.51586-297.67647,12.82116-297.67647,12.82116l-48.48021,9.97483s-49.60485,23.81033-63.8619,45.64178Z" fill="#e6e6e6" stroke-width="0"/><path d="m293.00008,616.45492c0,.91026,1.3391,1.6413,3.00666,1.6413h653.98667c1.66757,0,3.00667-.73104,3.00667-1.6413s-1.3391-1.6413-3.00667-1.6413H296.00673c-1.66756,0-3.00666.73104-3.00666,1.6413Z" fill="#484565" stroke-width="0"/><path d="m457.90201,616.45437c0,.91026-.92905,1.6413-2.08599,1.6413H2.086c-1.15694,0-2.086-.73104-2.086-1.6413,0-.91026.92905-1.6413,2.086-1.6413h453.73002c1.15694,0,2.08599.73104,2.08599,1.6413Z" fill="#484565" stroke-width="0"/><path d="m343.15982,615.83608v-38.55173s28.22346-49.71979,67.68595-34.4372c0,0,25.88453-8.47884,32.67351,25.46606,0,0,19.79592-4.62281,23.47592,9.56931,0,0,47.1487-65.10947,69.54272,0,0,0,20.34546-11.5814,21.36974,4.69985,1.02428,16.28125,0,33.2537,0,33.2537h-214.74784Z" fill="#fff" stroke-width="0"/><path d="m361.5764,616.25081l-13.57796-336.05453-57.70633-105.2292h19.98953s4.3082,14.01055,10.86247,30.89634c5.07089,13.06415,24.82262,6.00914,20.38333-7.28292-5.56442-16.66091-13.75451-32.6654-25.77666-42.28312l10.18347-38.36617s.15232.4196.43838,1.20963c13.31642,36.77613,58.45995,49.05583,89.34986,25.06366,4.78013-3.71272,9.92491-6.57682,15.44095-8.27407l10.18347,54.31184s-31.26873,0-50.47958,28.43308c-11.2834,16.70003,13.24833,34.10016,25.57202,18.15235,5.76189-7.45633,11.86922-17.11425,18.11858-29.61298l16.97245-44.12837v64.23396l-16.97245,3.65584-54.31184,67.8898-4.89197,317.38483h-13.77773Z" fill="#2f2e43" stroke-width="0"/><path d="m315.89133,616.25081s-13.43741-84.07411,0-100.59201c0,0,4.93904-33.36669,41.43588-4.57535l4.24919,105.16737h-45.68507Z" fill="#fff" stroke-width="0"/><path d="m335.74778,598.68233s5.67954-70.26123-13.9477-95.0848" fill="none" stroke="#2f2e43" stroke-miterlimit="10" stroke-width="2"/><path d="m509.55492,615.94794s5.67954-47.71296-13.9477-64.57014" fill="none" stroke="#2f2e43" stroke-miterlimit="10" stroke-width="2"/><path d="m424.37791,606.73961s5.67954-47.71296-13.9477-64.57014" fill="none" stroke="#2f2e43" stroke-miterlimit="10" stroke-width="2"/><path d="m329.15554,28.73703s-179.73478,18.93667-84.68905,171.68873c0,0-10.18347,57.70633,20.36694,40.73388,0,0,10.18347,30.55041,20.36694,10.18347,0,0,50.97641,20.64377,68.31882,9.97245,0,0-85.29127-118.59613-3.8235-121.99062,0,0,27.15592,61.10082,44.12837,50.91735,16.97245-10.18347,29.77347-38.67223,29.77347-38.67223l17.74939,92.98407s50.91735,13.57796,33.9449-47.52286c0,0,57.70633-10.18347,30.55041-67.8898,0,0,10.18347-44.12837-23.76143-67.8898,0,0-47.86927-112.55213-152.92526-32.51464Z" fill="#6c63ff" stroke-width="0"/><polygon points="398.96365 441.7551 394.0122 461.32187 428.20262 460.89977 424.28989 443.02141 398.96365 441.7551" fill="#e29295" stroke-width="0"/><polygon points="392.63911 508.60505 385.21591 541.08157 371.55344 606.10354 377.885 607.36985 421.40403 510.46085 392.63911 508.60505" fill="#e29295" stroke-width="0"/><polygon points="406.93102 516.00291 420.64241 546.36449 440.77849 607.36985 449.22057 605.25933 430.97095 500.09863 406.93102 516.00291" fill="#e29295" stroke-width="0"/><path d="m395.93225,453.26579s-15.26487,26.87992-12.48117,56.57273c0,0,22.50444,17.04062,58.65702,1.26631l-14.88195-59.38563-31.2939,1.54659Z" fill="#090814" stroke-width="0"/><path d="m370.49625,613.8562c-.72681-.59574-1.11914-1.26097-1.16602-1.97728-.05366-.81932.35123-1.6984,1.20322-2.6128.02045-.26313.28488-3.52312.87414-4.10688-.0494-.1745-.34954-1.33139.14247-2.0826.23178-.35386.60538-.56011,1.11045-.61304l.02201-.00227.0109.01947c.01424.02546,1.44809,2.54729,3.60495,2.7687,1.23656.12693,2.47461-.51725,3.67979-1.91519.04332-.10328.38384-1.80596.60363-2.933l.00879-.04506,11.75209,6.25465,6.86954,1.92469c.8634.24192,1.4664,1.04438,1.4664,1.95145,0,.77346-.44487,1.48977-1.13334,1.82486l-3.3298,1.62068c-1.39134.6772-2.94276,1.03514-4.48654,1.03514h-18.06199c-1.17022,0-2.29626-.39474-3.17069-1.11152Z" fill="#090814" stroke-width="0"/><path d="m437.61079,613.8562c-.72681-.59574-1.11914-1.26097-1.16602-1.97728-.05366-.81932.35123-1.6984,1.20322-2.6128.02045-.26313.28488-3.52312.87414-4.10688-.0494-.1745-.34954-1.33139.14247-2.0826.23178-.35386.60538-.56011,1.11045-.61304l.02201-.00227.0109.01947c.01424.02546,1.44809,2.54729,3.60495,2.7687,1.23656.12693,2.47461-.51725,3.67979-1.91519.04332-.10328.38384-1.80596.60363-2.933l.00879-.04506,11.75209,6.25465,6.86954,1.92469c.8634.24192,1.4664,1.04438,1.4664,1.95145,0,.77346-.44487,1.48977-1.13334,1.82486l-3.3298,1.62068c-1.39134.6772-2.94276,1.03514-4.48654,1.03514h-18.06199c-1.17022,0-2.29626-.39474-3.17069-1.11152Z" fill="#090814" stroke-width="0"/><path d="m403.87645,381.03534c0-7.61637,6.1743-13.79067,13.79067-13.79067,7.61642,0,13.79072,6.1743,13.79072,13.79067,0,6.17693-4.06131,11.40464-9.65903,13.1603l-2.66597,17.61893-13.5908-11.32565s2.93602-3.73978,4.51057-7.9566c-3.72144-2.46966-6.17616-6.69585-6.17616-11.49698Z" fill="#e29295" stroke-width="0"/><path d="m404.24799,394.649l16.24296,10.38305,7.49728,13.24022c2.17082,3.83368,2.90399,8.31563,2.06788,12.64119l-3.44465,17.8206h-35.91523s5.67482-37.17937,5.67482-37.17937c.7243-4.74535,2.53176-9.26013,5.28223-13.19432l2.5947-3.71137Z" fill="#6c63ff" stroke-width="0"/><path d="m399.44859,399.15481s.64398,4.88586,6.61041,5.04541q12.10294.32366,12.10294.32366s-10.23116-24.89881-6.02425-22.09378c4.20691,2.80503,15.42532-8.95452,15.42532-8.95452l3.31017,6.2082s7.90824-2.86374-.85614-9.87631c0,0-10.45718-8.08467-21.55874-3.22981-11.10156,4.85486-9.00972,32.57716-9.00972,32.57716Z" fill="#090814" stroke-width="0"/><path d="m407.02699,487.62842l-.28994-13.36467,7.80318-.16929.28994,13.36467c1.45588,1.35152,2.41694,3.4515,2.46859,5.8324.09038,4.16595-2.63123,7.60371-6.0789,7.67851-3.44768.0748-6.31581-3.2417-6.40619-7.40765-.05165-2.3809.81749-4.52059,2.21332-5.93397Z" fill="#e29295" stroke-width="0"/><polyline points="417.79975 420.73765 417.79975 485.5174 404.24799 485.5174 400.24288 421.28448" fill="#6c63ff" stroke-width="0"/><path d="m242.13914,616.45492c0,.91026.73099,1.6413,1.64129,1.6413h357.00175c.9103,0,1.6413-.73104,1.6413-1.6413s-.73099-1.6413-1.6413-1.6413H243.78043c-.9103,0-1.64129.73104-1.64129,1.6413Z" fill="#484565" stroke-width="0"/></svg>